<svg width="16" height="16" viewBox="0 0 16 16" fill="none" xmlns="http://www.w3.org/2000/svg">
<path d="M12.4972 14.8046H3.30739C2.03747 14.8046 1 13.7672 1 12.4972V3.30739C1 2.03747 2.03747 1 3.30739 1H12.4972C13.7672 1 14.8046 2.03747 14.8046 3.30739V12.4972C14.8046 13.7728 13.7728 14.8046 12.4972 14.8046Z" stroke="#808080"/>
<path d="M5.39685 10.4114C6.06582 11.0804 6.95589 11.4489 7.90266 11.4489C8.84942 11.4489 9.73383 11.0804 10.4085 10.4114C11.0774 9.74242 11.4459 8.85235 11.4459 7.90559C11.4459 6.95882 11.0774 6.06875 10.4085 5.39978C9.7395 4.73081 8.84942 4.3623 7.90266 4.3623C6.95589 4.3623 6.06582 4.73081 5.39685 5.39978C4.72788 6.06875 4.35938 6.95882 4.35938 7.90559C4.35938 8.85235 4.72788 9.74242 5.39685 10.4114Z" stroke="#808080"/>
<path d="M12.1413 4.24542C12.517 4.24542 12.8216 3.94083 12.8216 3.56509C12.8216 3.18936 12.517 2.88477 12.1413 2.88477C11.7655 2.88477 11.4609 3.18936 11.4609 3.56509C11.4609 3.94083 11.7655 4.24542 12.1413 4.24542Z" stroke="#808080"/>
</svg>
