<svg width="14" height="17" viewBox="0 0 14 17" fill="none" xmlns="http://www.w3.org/2000/svg">
<path d="M10.0759 1.55349L9.73219 1H7.65192V5.98506L7.64483 10.8544C7.64837 10.8905 7.65192 10.9303 7.65192 10.9665C7.65192 12.1856 6.68089 13.1805 5.48304 13.1805C4.2852 13.1805 3.31417 12.1892 3.31417 10.9665C3.31417 9.74736 4.2852 8.75252 5.48304 8.75252C5.73112 8.75252 5.9721 8.79955 6.19537 8.87914V6.44811C5.96502 6.40832 5.72757 6.38661 5.48304 6.38661C3.01294 6.39023 1 8.44503 1 10.9701C1 13.4952 3.01294 15.55 5.48659 15.55C7.96024 15.55 9.97318 13.4952 9.97318 10.9701V5.17833C10.8698 6.09358 12.0286 6.98713 13.3115 7.27292V4.78763C11.9188 4.15817 10.5331 2.29872 10.0759 1.55349Z" stroke="#808080"/>
</svg>
