<svg width="18" height="15" viewBox="0 0 18 15" fill="none" xmlns="http://www.w3.org/2000/svg">
<path d="M2 12.1367C3.61463 12.227 5.02656 11.8521 6.40354 10.8594C5.01258 10.6234 4.048 9.99173 3.52377 8.68669C3.92917 8.63116 4.28565 8.73528 4.70504 8.56868C3.33505 7.9717 2.44735 7.07621 2.4124 5.52821C2.84576 5.56292 3.17428 5.84753 3.69152 5.80588C2.43337 4.58414 2.04893 3.25133 2.83877 1.63391C4.15284 3.13332 5.69059 4.15375 7.57084 4.63273C7.67568 4.6605 7.77353 4.68827 7.87838 4.70909C8.36067 4.82016 8.93383 5.05618 9.2274 5.02147C9.73066 4.95899 9.22741 4.38283 9.35322 3.63313C9.75164 1.30071 12.3378 0.238628 14.253 1.60615C14.8122 2.00876 15.2526 2.00182 15.8048 1.75886C16.0913 1.63391 16.3849 1.50896 16.7274 1.36319C16.6505 2.02959 16.1333 2.3975 15.7209 2.89036C16.1892 2.99449 16.5666 2.8626 17 2.72376C16.8532 3.20274 16.4897 3.47347 16.1612 3.73725C15.8187 4.00798 15.6859 4.29259 15.6719 4.73686C15.4623 11.4634 7.76655 16.6627 2.50327 12.5255C1.99302 12.1228 2.48928 12.5255 2 12.1367Z" stroke="#808080"/>
</svg>
