<svg width="21" height="25" viewBox="0 0 21 25" fill="none" xmlns="http://www.w3.org/2000/svg">
<path fill-rule="evenodd" clip-rule="evenodd" d="M7.39848 1.6534C7.63653 1.21221 7.97751 0.832477 8.39474 0.547779C8.92098 0.188695 9.54378 -0.00230148 10.1809 2.09304e-05C11.3719 2.09304e-05 12.4306 0.64214 12.9732 1.67033C15.8903 2.80117 17.9658 5.6386 17.9658 8.94867V12.2891C17.9658 12.8208 18.2201 13.757 18.4975 14.2309L19.8152 16.427C20.3122 17.2593 20.4047 18.2649 20.0695 19.178C19.9058 19.6247 19.6429 20.0285 19.3005 20.3588C18.9581 20.6892 18.5452 20.9375 18.0929 21.0851C16.8532 21.5022 15.5777 21.8175 14.284 22.0312C13.7114 23.7554 12.0848 25 10.1693 25C9.025 25 7.91538 24.5377 7.10628 23.7286C6.6281 23.2504 6.27104 22.6672 6.05895 22.034C4.75792 21.8202 3.47387 21.504 2.22306 21.0851C1.25215 20.7499 0.512398 20.068 0.188759 19.178C-0.146439 18.288 -0.0308537 17.3055 0.500839 16.427L1.83007 14.2194C2.10748 13.757 2.36177 12.8323 2.36177 12.2891V8.94867C2.36177 5.62195 4.45822 2.77265 7.39848 1.6534ZM9.38837 2.92978C6.41134 3.31143 4.09555 5.8602 4.09555 8.94867V12.2891C4.09555 13.1329 3.74879 14.3812 3.32112 15.1094L1.99189 17.3171C1.7376 17.7447 1.66825 18.1955 1.81851 18.5769C1.95722 18.9699 2.30397 19.2705 2.77787 19.4323C7.57283 21.0504 12.7663 21.0504 17.5613 19.4323C17.9774 19.2936 18.301 18.9815 18.4513 18.5654C18.6015 18.1493 18.5668 17.6985 18.3357 17.3171L17.0064 15.1094C16.5672 14.3581 16.232 13.1213 16.232 12.2775V8.94867C16.232 5.82774 13.8773 3.25792 10.8472 2.91847C10.3504 2.87135 9.86311 2.87512 9.38837 2.92978ZM8.13866 22.2874C8.19867 22.3627 8.26301 22.4349 8.33149 22.5034C8.81695 22.9888 9.48734 23.2662 10.1693 23.2662C10.9904 23.2662 11.7242 22.8831 12.2013 22.2864C11.5237 22.3409 10.8438 22.3681 10.1638 22.3681C9.48802 22.3681 8.81224 22.3412 8.13866 22.2874Z" fill="#999999"/>
</svg>
