<svg width="29" height="25" viewBox="0 0 29 25" fill="none" xmlns="http://www.w3.org/2000/svg">
<path d="M1.78436 3.89289L12.4905 10.5894L23.1966 3.89289V8.92865H24.981V1.78573C24.981 0.803579 24.178 0 23.1966 0H1.78436C0.802961 0 0 0.803579 0 1.78573V19.643C0 20.6252 0.802961 21.4288 1.78436 21.4288H17.8436V19.643H1.78436V3.89289ZM23.1966 1.78573L12.4905 8.48222L1.78436 1.78573H23.1966Z" fill="#999999"/>
<path d="M26.7624 14.2853V20.5354C26.7624 22.0175 25.5669 23.214 24.0859 23.214C22.6049 23.214 21.4094 22.0175 21.4094 20.5354V13.3925C21.4094 12.8925 21.8019 12.4996 22.3015 12.4996C22.8012 12.4996 23.1937 12.8925 23.1937 13.3925V19.6425H24.9781V13.3925C24.9781 11.9103 23.7826 10.7139 22.3015 10.7139C20.8205 10.7139 19.625 11.9103 19.625 13.3925V20.5354C19.625 22.9997 21.6235 24.9997 24.0859 24.9997C26.5483 24.9997 28.5468 22.9997 28.5468 20.5354V14.2853H26.7624Z" fill="#999999"/>
</svg>
