<svg width="26" height="26" viewBox="0 0 26 26" fill="none" xmlns="http://www.w3.org/2000/svg">
<path d="M13 25.5005C6.09625 25.5005 0.5 19.9042 0.5 13.0005C0.5 6.09674 6.09625 0.500488 13 0.500488C19.9037 0.500488 25.5 6.09674 25.5 13.0005C25.5 19.9042 19.9037 25.5005 13 25.5005ZM13 23.0005C15.6522 23.0005 18.1957 21.9469 20.0711 20.0716C21.9464 18.1962 23 15.6527 23 13.0005C23 10.3483 21.9464 7.80478 20.0711 5.92942C18.1957 4.05406 15.6522 3.00049 13 3.00049C10.3478 3.00049 7.8043 4.05406 5.92893 5.92942C4.05357 7.80478 3 10.3483 3 13.0005C3 15.6527 4.05357 18.1962 5.92893 20.0716C7.8043 21.9469 10.3478 23.0005 13 23.0005ZM11.75 16.7505H14.25V19.2505H11.75V16.7505ZM14.25 14.6942V15.5005H11.75V13.6255C11.75 13.294 11.8817 12.976 12.1161 12.7416C12.3505 12.5072 12.6685 12.3755 13 12.3755C13.3551 12.3755 13.7029 12.2746 14.0029 12.0847C14.3029 11.8947 14.5428 11.6234 14.6947 11.3025C14.8466 10.9815 14.9042 10.624 14.8609 10.2715C14.8175 9.9191 14.6749 9.58622 14.4498 9.31163C14.2246 9.03704 13.9261 8.83203 13.589 8.72045C13.2519 8.60888 12.89 8.59532 12.5455 8.68137C12.201 8.76742 11.888 8.94953 11.643 9.20651C11.3979 9.46349 11.2308 9.78478 11.1613 10.133L8.70875 9.64174C8.86079 8.88184 9.21189 8.17595 9.72615 7.59622C10.2404 7.01649 10.8994 6.58372 11.6357 6.34214C12.3721 6.10056 13.1594 6.05885 13.9171 6.22126C14.6748 6.38367 15.3759 6.74438 15.9485 7.26652C16.5212 7.78866 16.9449 8.4535 17.1764 9.19307C17.4079 9.93264 17.4388 10.7204 17.2661 11.4759C17.0933 12.2313 16.7231 12.9274 16.1932 13.4928C15.6632 14.0583 14.9927 14.4729 14.25 14.6942Z" fill="#999999"/>
</svg>
