<svg width="26" height="27" viewBox="0 0 26 27" fill="none" xmlns="http://www.w3.org/2000/svg">
<path d="M13.663 10.4285C13.663 8.27492 11.908 6.51291 9.763 6.51291C7.618 6.51291 5.863 8.27492 5.863 10.4285C5.863 12.5821 7.618 14.3441 9.763 14.3441C11.908 14.3441 13.663 12.5821 13.663 10.4285ZM9.763 11.7337C9.048 11.7337 8.463 11.1463 8.463 10.4285C8.463 9.71064 9.048 9.1233 9.763 9.1233C10.478 9.1233 11.063 9.71064 11.063 10.4285C11.063 11.1463 10.478 11.7337 9.763 11.7337ZM18.213 14.3441C19.656 14.3441 20.813 13.1824 20.813 11.7337C20.813 10.2849 19.656 9.1233 18.213 9.1233C16.77 9.1233 15.6 10.2849 15.613 11.7337C15.613 13.1824 16.77 14.3441 18.213 14.3441ZM13 0C5.824 0 0 5.84726 0 13.0519C0 20.2566 5.824 26.1039 13 26.1039C20.176 26.1039 26 20.2566 26 13.0519C26 5.84726 20.176 0 13 0ZM5.005 19.7215C5.889 19.0167 7.956 18.2727 9.763 18.2727C9.854 18.2727 9.958 18.2858 10.062 18.2858C10.374 17.4504 10.933 16.6021 11.752 15.8581C11.024 15.7276 10.335 15.6493 9.763 15.6493C8.073 15.6493 5.356 16.2366 3.614 17.5157C2.964 16.1583 2.6 14.6443 2.6 13.0389C2.6 7.28298 7.267 2.59733 13 2.59733C18.733 2.59733 23.4 7.28298 23.4 13.0389C23.4 14.6051 23.049 16.093 22.425 17.4374C21.125 16.6673 19.357 16.3019 18.213 16.3019C16.237 16.3019 12.363 17.3591 12.363 19.8259V23.4543C9.412 23.2846 6.786 21.875 5.005 19.7215Z" fill="#999999"/>
</svg>
