<svg width="34" height="25" viewBox="0 0 34 25" fill="none" xmlns="http://www.w3.org/2000/svg">
<g clip-path="url(#clip0_2660_370242)">
<path d="M1.63198 24.8128C1.62 24.8128 1.60719 24.8128 1.59438 24.812C1.306 24.8017 1.00976 24.7997 0.723443 24.7984C0.604866 24.7976 0.486289 24.7972 0.367712 24.796L0 24.7919V23.9221L0.0429686 23.8987C0.0892425 22.8839 0.296236 21.8596 0.658577 20.8533C1.04034 19.7925 1.58529 18.8088 2.27775 17.93C3.18794 16.7754 4.28199 15.8372 5.53056 15.142C6.09783 14.826 6.67873 14.5641 7.265 14.3587C5.54047 13.4344 4.33198 12.038 3.66721 10.1972C3.13051 8.71175 3.0892 7.18125 3.54408 5.64746C4.59929 2.08558 7.74055 0.350544 10.3856 0.211184C10.5323 0.203396 10.6806 0.199707 10.826 0.199707C12.5154 0.199707 14.1053 0.723538 15.4245 1.71504C16.621 2.61433 17.5448 3.87308 18.0253 5.25889C18.6876 7.16977 18.5914 9.0622 17.739 10.8841C17.0362 12.3868 15.9224 13.5533 14.4213 14.3624C14.4416 14.3694 14.4618 14.3763 14.4817 14.3833C15.717 14.812 16.8706 15.4785 17.9105 16.3651C19.1053 17.3836 20.0449 18.6235 20.7026 20.0499C21.1282 20.9726 21.4066 21.9141 21.531 22.8486L21.5384 22.9052C21.5983 23.3548 21.6603 23.82 21.6578 24.2963C21.6562 24.614 21.4603 24.8111 21.1459 24.8111H21.1282C20.9088 24.8066 20.7274 24.805 20.558 24.805C20.3766 24.805 20.2118 24.807 20.0535 24.812C20.0449 24.812 20.0366 24.812 20.0283 24.812C19.9077 24.812 19.5135 24.7726 19.5073 24.2689C19.4854 22.4994 18.9326 20.8672 17.8642 19.4175C16.6607 17.7845 15.0465 16.6848 13.0666 16.1487C12.344 15.9527 11.6044 15.8536 10.869 15.8536C10.6248 15.8536 10.3769 15.8646 10.1327 15.8863C8.19957 16.0581 6.49611 16.7864 5.06947 18.0505C3.73744 19.231 2.84171 20.7078 2.40666 22.4396C2.23561 23.1212 2.16578 23.6876 2.18727 24.2225C2.19016 24.291 2.19842 24.4992 2.04514 24.657C1.94516 24.7603 1.80633 24.8124 1.63239 24.8124L1.63198 24.8128ZM10.7529 2.33192C9.34278 2.33192 8.00373 2.89059 6.98281 3.90546C5.95033 4.93181 5.38306 6.28852 5.38595 7.72598C5.38843 9.16631 5.94826 10.5177 6.96133 11.5309C7.95457 12.5241 9.27213 13.0946 10.6723 13.1377C10.7298 13.1393 10.7884 13.1405 10.8463 13.1405H10.8467C12.3105 13.1405 13.6851 12.5679 14.7184 11.5281C15.7373 10.5025 16.3004 9.15688 16.3045 7.7391C16.3087 6.32664 15.7203 4.92894 14.6907 3.90423C13.6723 2.891 12.3489 2.33315 10.9644 2.33315C10.9363 2.33315 10.9082 2.33315 10.8801 2.33397H10.8731H10.8661C10.8285 2.33315 10.7909 2.33274 10.7537 2.33274L10.7529 2.33192Z" fill="#999999"/>
<path d="M24.533 25L24.5896 24.5819C24.6222 24.3397 24.614 24.0888 24.6049 23.8232C24.6032 23.7703 24.6012 23.7171 24.5999 23.6642C24.5974 23.5707 24.5912 23.3523 24.752 23.1883C24.8966 23.0412 25.0891 23.024 25.2213 23.024H25.2279C26.0613 23.0276 26.8921 23.0281 27.6713 23.0281H28.3522C29.3037 23.0281 30.3156 23.0285 31.3113 23.0346C31.4299 23.0346 31.529 22.999 31.5939 22.9342C31.6575 22.8711 31.6897 22.7817 31.6897 22.6686C31.6811 17.1954 31.6815 11.6308 31.6819 6.24949V2.28018C31.6819 2.07811 31.5885 1.98137 31.3873 1.97687C31.3129 1.97523 31.2332 1.97441 31.1361 1.97441C31.0667 1.97441 30.9973 1.97441 30.9279 1.97523C30.8572 1.97523 30.7862 1.97605 30.7155 1.97605H26.4984C22.7733 1.97605 19.6383 1.97646 16.4466 1.98015H16.4454C16.3495 1.98015 16.1318 1.97933 15.9756 1.81414C15.8194 1.64855 15.8339 1.43008 15.8385 1.35835C15.855 1.11078 15.8484 0.860755 15.8418 0.59638L15.8401 0.533258C15.8385 0.471366 15.8339 0.283229 15.9756 0.13936C16.0368 0.077058 16.1463 0.00286918 16.3181 0.00286918C16.3471 0.00286918 16.3764 0.0049186 16.4078 0.00901743C16.4099 0.00901743 16.4123 0.00901743 16.4152 0.00901743H16.4189C16.4318 0.00901743 16.4446 0.00860755 16.4578 0.00819766C16.4793 0.0073779 16.5007 0.00696801 16.5222 0.00696801C17.834 0.00696801 19.1458 0.00778778 20.4576 0.00819766C21.7694 0.00860755 23.0811 0.00942731 24.3925 0.00942731C27.1648 0.00942731 29.3033 0.00655813 31.3266 0H31.3353C31.9794 0 32.5743 0.234453 33.0106 0.660732C33.4548 1.09439 33.6994 1.69487 33.6989 2.35109C33.6969 7.68859 33.6973 13.1158 33.6977 18.364V22.6575C33.6977 23.788 32.9743 24.7135 31.9261 24.941L31.8492 25H24.5326H24.533Z" fill="#999999"/>
<path d="M29.3332 6.47228C28.3259 6.469 27.3385 6.46859 26.5055 6.46859H24.4063H22.3194C21.4885 6.46859 20.504 6.469 19.5 6.47228H19.4942C19.4103 6.47228 19.2141 6.47228 19.0674 6.32063C18.9199 6.16815 18.9282 5.96894 18.9307 5.90377C18.9443 5.57136 18.9443 5.22378 18.9307 4.86964C18.9282 4.80365 18.9203 4.60362 19.0682 4.45115C19.2157 4.29908 19.4112 4.29908 19.4946 4.29908C21.2894 4.30236 23.0544 4.30277 24.6951 4.30277H27.5388C27.7041 4.30277 27.869 4.30277 28.0342 4.30359C28.1987 4.304 28.3627 4.30482 28.5271 4.30482C28.8407 4.30482 29.094 4.30277 29.3253 4.29785C29.3328 4.29785 29.3398 4.29785 29.3468 4.29785C29.4125 4.29785 29.6121 4.29785 29.7616 4.45074C29.912 4.60444 29.9054 4.80857 29.9034 4.88562C29.891 5.27624 29.891 5.59923 29.9034 5.90254C29.9058 5.96813 29.9137 6.16774 29.7662 6.32063C29.6187 6.47269 29.4229 6.47269 29.339 6.47269H29.3336L29.3332 6.47228Z" fill="#999999"/>
<path d="M19.4987 11.1063C19.3797 11.1063 19.2058 11.0903 19.0711 10.9518C18.9211 10.7976 18.9281 10.5968 18.931 10.5214C18.9434 10.1746 18.9434 9.85613 18.931 9.5479C18.9277 9.47002 18.919 9.26344 19.0711 9.10605C19.2235 8.94824 19.4309 8.94824 19.509 8.94824C20.8506 8.95234 22.1772 8.95316 23.2985 8.95316H25.8833C26.1531 8.95316 26.4229 8.95316 26.6931 8.95316C26.9703 8.95316 27.2471 8.95316 27.5243 8.95316C28.016 8.95316 28.6655 8.95275 29.3245 8.94865H29.3323C29.4088 8.94865 29.6124 8.94865 29.7632 9.10482C29.9145 9.26098 29.9062 9.46756 29.9033 9.5356C29.8897 9.8713 29.8893 10.1984 29.9021 10.5074C29.907 10.6284 29.8979 10.8054 29.7608 10.9472C29.6075 11.1055 29.3993 11.1055 29.3208 11.1055H29.3154C28.3378 11.1018 27.3574 11.1009 26.6129 11.1009H24.4095H22.2285C21.4765 11.1009 20.4874 11.1014 19.5037 11.1055H19.4983L19.4987 11.1063Z" fill="#999999"/>
<path d="M22.2001 16.0463C22.1315 16.0463 21.9253 16.0463 21.7754 15.8922C21.625 15.7385 21.6312 15.5377 21.6336 15.4623C21.6456 15.0843 21.6415 14.7114 21.6361 14.3966C21.6353 14.3371 21.632 14.1556 21.7725 14.0137C21.9133 13.8715 22.0968 13.8715 22.1575 13.8715C23.3404 13.8731 24.5229 13.874 25.7045 13.874C26.958 13.874 28.1925 13.8731 29.3734 13.8711H29.3738C29.4378 13.8711 29.6254 13.8715 29.7679 14.0162C29.9105 14.1609 29.9063 14.349 29.9051 14.4109C29.8977 14.7519 29.8927 15.1167 29.9043 15.4746C29.908 15.5897 29.8977 15.7586 29.765 15.8947C29.6171 16.0463 29.4192 16.0463 29.3449 16.0463H29.3374C28.6483 16.0422 27.967 16.0418 27.4509 16.0418C27.1679 16.0418 26.0354 16.0427 25.7524 16.0427C25.4694 16.0427 25.1798 16.0427 24.8935 16.0422C24.6071 16.0422 24.3212 16.0418 24.0349 16.0418C23.5367 16.0418 22.8789 16.0422 22.2088 16.0468H22.2005L22.2001 16.0463Z" fill="#999999"/>
</g>
<defs>
<clipPath id="clip0_2660_370242">
<rect width="33.6957" height="25" fill="white"/>
</clipPath>
</defs>
</svg>
