<svg width="20" height="26" viewBox="0 0 20 26" fill="none" xmlns="http://www.w3.org/2000/svg">
<path d="M4.89118 1.92334C4.89118 1.59182 5.02001 1.27388 5.24932 1.03946C5.47864 0.805036 5.78966 0.67334 6.11397 0.67334H13.4507C13.775 0.67334 14.0861 0.805036 14.3154 1.03946C14.5447 1.27388 14.6735 1.59182 14.6735 1.92334H17.1191C17.7677 1.92334 18.3898 2.18673 18.8484 2.65557C19.307 3.12441 19.5647 3.7603 19.5647 4.42334V23.1733C19.5647 23.8364 19.307 24.4723 18.8484 24.9411C18.3898 25.4099 17.7677 25.6733 17.1191 25.6733H2.44559C1.79698 25.6733 1.17493 25.4099 0.716296 24.9411C0.257659 24.4723 0 23.8364 0 23.1733V4.42334C0 3.7603 0.257659 3.12441 0.716296 2.65557C1.17493 2.18673 1.79698 1.92334 2.44559 1.92334H4.89118ZM4.89118 4.42334H2.44559V23.1733H17.1191V4.42334H14.6735V5.67334C14.6735 6.00486 14.5447 6.3228 14.3154 6.55722C14.0861 6.79164 13.775 6.92334 13.4507 6.92334H6.11397C5.78966 6.92334 5.47864 6.79164 5.24932 6.55722C5.02001 6.3228 4.89118 6.00486 4.89118 5.67334V4.42334ZM12.2279 3.17334H7.33676V4.42334H12.2279V3.17334ZM14.3152 11.6646C14.5445 11.899 14.6733 12.2169 14.6733 12.5483C14.6733 12.8798 14.5445 13.1977 14.3152 13.4321L9.42407 18.4321C9.19476 18.6664 8.8838 18.7981 8.55956 18.7981C8.23532 18.7981 7.92435 18.6664 7.69504 18.4321L5.24945 15.9321C5.13266 15.8168 5.03951 15.6789 4.97542 15.5263C4.91134 15.3738 4.87761 15.2098 4.8762 15.0438C4.87478 14.8779 4.90572 14.7133 4.96721 14.5596C5.02869 14.406 5.11949 14.2665 5.2343 14.1491C5.34911 14.0317 5.48564 13.9389 5.63591 13.8761C5.78619 13.8132 5.94721 13.7816 6.10957 13.783C6.27193 13.7845 6.43238 13.819 6.58157 13.8845C6.73076 13.95 6.86568 14.0452 6.97848 14.1646L8.55956 15.7808L12.5862 11.6646C12.8155 11.4303 13.1265 11.2986 13.4507 11.2986C13.775 11.2986 14.0859 11.4303 14.3152 11.6646Z" fill="#999999"/>
</svg>
