<svg width="20" height="23" viewBox="0 0 20 23" fill="none" xmlns="http://www.w3.org/2000/svg">
<path d="M10.0004 8.94168L12.3174 6.37535C11.955 5.42876 11.9011 4.37203 12.165 3.38626C12.4289 2.4005 12.9941 1.54709 13.7638 0.972288C14.5335 0.397489 15.4597 0.137097 16.3837 0.235737C17.3077 0.334377 18.172 0.785908 18.8284 1.51294C19.4848 2.23998 19.8925 3.19725 19.9815 4.22069C20.0706 5.24413 19.8355 6.27002 19.3166 7.12253C18.7976 7.97503 18.0271 8.60108 17.1371 8.89337C16.2471 9.18566 15.293 9.12599 14.4384 8.72459L12.1204 11.2909L18.4954 18.3508C18.6812 18.5565 18.8286 18.8008 18.9292 19.0696C19.0297 19.3384 19.0815 19.6265 19.0815 19.9175C19.0815 20.2085 19.0297 20.4966 18.9292 20.7654C18.8286 21.0343 18.6812 21.2785 18.4954 21.4842L17.7884 22.2673L5.56241 8.72459C4.70778 9.12599 3.75371 9.18566 2.86371 8.89337C1.97372 8.60108 1.20322 7.97503 0.684263 7.12253C0.165308 6.27002 -0.0697863 5.24413 0.0192698 4.22069C0.108326 3.19725 0.515989 2.23998 1.17239 1.51294C1.82879 0.785907 2.69306 0.334376 3.61707 0.235736C4.54109 0.137096 5.46731 0.397489 6.23699 0.972287C7.00667 1.54709 7.5719 2.4005 7.83579 3.38626C8.09968 4.37203 8.04581 5.42876 7.68341 6.37535L10.0004 8.94279L10.0004 8.94168ZM14.0004 4.64527C14.0004 5.23278 14.2111 5.79623 14.5862 6.21166C14.9613 6.6271 15.47 6.86049 16.0004 6.86049C16.5308 6.86049 17.0395 6.6271 17.4146 6.21167C17.7897 5.79623 18.0004 5.23278 18.0004 4.64527C18.0004 4.05776 17.7897 3.49431 17.4146 3.07888C17.0395 2.66345 16.5308 2.43006 16.0004 2.43006C15.47 2.43006 14.9613 2.66345 14.5862 3.07888C14.2111 3.49431 14.0004 4.05776 14.0004 4.64527ZM2.00041 4.64527C2.00041 5.23278 2.21112 5.79623 2.58619 6.21166C2.96127 6.6271 3.46997 6.86049 4.00041 6.86049C4.53084 6.86049 5.03955 6.6271 5.41462 6.21166C5.78969 5.79623 6.00041 5.23278 6.00041 4.64527C6.00041 4.05776 5.78969 3.49431 5.41462 3.07888C5.03955 2.66345 4.53084 2.43006 4.00041 2.43006C3.46997 2.43006 2.96127 2.66345 2.58619 3.07888C2.21112 3.49431 2.00041 4.05776 2.00041 4.64527ZM8.58741 15.2063L2.21141 22.2673L1.50441 21.4842C1.3186 21.2785 1.17121 21.0343 1.07065 20.7654C0.970092 20.4966 0.918332 20.2085 0.918332 19.9175C0.918332 19.6265 0.970092 19.3384 1.07065 19.0696C1.17121 18.8008 1.3186 18.5565 1.50441 18.3508L6.46541 12.8571L8.58741 15.2052L8.58741 15.2063ZM11.0004 15.7213L11.0004 17.9366L9.00041 17.9366L9.00041 15.7213L11.0004 15.7213ZM11.0004 20.1518L11.0004 22.367L9.00041 22.367L9.00041 20.1518L11.0004 20.1518ZM11.0004 4.64527L11.0004 6.86049L9.00041 6.86049L9.00041 4.64527L11.0004 4.64527ZM11.0004 0.214843L11.0004 2.43006L9.00041 2.43006L9.00041 0.214843L11.0004 0.214843Z" fill="white"/>
</svg>
