<svg width="65" height="64" viewBox="0 0 65 64" fill="none" xmlns="http://www.w3.org/2000/svg">
<rect x="0.5" y="0.5" width="63.765" height="62.1459" rx="31.0729" stroke="#E07B2C"/>
<path d="M26.98 48.501C27.0967 48.501 27.1947 48.543 27.274 48.627L28.107 49.516C27.6963 50.0387 27.1853 50.4353 26.574 50.706C25.9673 50.9767 25.244 51.112 24.404 51.112C23.6433 51.112 22.9597 50.9837 22.353 50.727C21.7463 50.4657 21.2307 50.104 20.806 49.642C20.3813 49.18 20.0547 48.6317 19.826 47.997C19.5973 47.3623 19.483 46.6693 19.483 45.918C19.483 45.414 19.5367 44.9357 19.644 44.483C19.756 44.0257 19.917 43.6057 20.127 43.223C20.337 42.8403 20.589 42.495 20.883 42.187C21.1817 41.879 21.5177 41.6177 21.891 41.403C22.2643 41.1837 22.6703 41.018 23.109 40.906C23.5523 40.7893 24.0237 40.731 24.523 40.731C24.8963 40.731 25.2487 40.7637 25.58 40.829C25.916 40.8943 26.2287 40.9853 26.518 41.102C26.8073 41.2187 27.0733 41.361 27.316 41.529C27.5633 41.6923 27.785 41.872 27.981 42.068L27.274 43.034C27.232 43.0947 27.1783 43.1483 27.113 43.195C27.0477 43.2417 26.959 43.265 26.847 43.265C26.735 43.265 26.6207 43.2253 26.504 43.146C26.392 43.0667 26.252 42.978 26.084 42.88C25.9207 42.782 25.713 42.6933 25.461 42.614C25.2137 42.5347 24.8987 42.495 24.516 42.495C24.0913 42.495 23.7017 42.572 23.347 42.726C22.9923 42.88 22.6867 43.104 22.43 43.398C22.178 43.6873 21.982 44.0443 21.842 44.469C21.702 44.8937 21.632 45.3767 21.632 45.918C21.632 46.464 21.7067 46.9517 21.856 47.381C22.01 47.8057 22.2177 48.165 22.479 48.459C22.745 48.753 23.053 48.977 23.403 49.131C23.7577 49.2803 24.1357 49.355 24.537 49.355C24.775 49.355 24.9897 49.3433 25.181 49.32C25.377 49.2967 25.5567 49.257 25.72 49.201C25.888 49.145 26.0443 49.0727 26.189 48.984C26.3383 48.8953 26.4877 48.7833 26.637 48.648C26.6883 48.606 26.742 48.571 26.798 48.543C26.854 48.515 26.9147 48.501 26.98 48.501ZM30.9725 40.563V51H29.0405V40.563H30.9725ZM34.5692 43.783V51H32.6372V43.783H34.5692ZM34.8002 41.732C34.8002 41.8953 34.7675 42.047 34.7022 42.187C34.6369 42.327 34.5482 42.4507 34.4362 42.558C34.3289 42.6653 34.2005 42.7493 34.0512 42.81C33.9065 42.8707 33.7502 42.901 33.5822 42.901C33.4235 42.901 33.2719 42.8707 33.1272 42.81C32.9872 42.7493 32.8635 42.6653 32.7562 42.558C32.6489 42.4507 32.5625 42.327 32.4972 42.187C32.4365 42.047 32.4062 41.8953 32.4062 41.732C32.4062 41.5687 32.4365 41.417 32.4972 41.277C32.5625 41.1323 32.6489 41.0063 32.7562 40.899C32.8635 40.7917 32.9872 40.7077 33.1272 40.647C33.2719 40.5863 33.4235 40.556 33.5822 40.556C33.7502 40.556 33.9065 40.5863 34.0512 40.647C34.2005 40.7077 34.3289 40.7917 34.4362 40.899C34.5482 41.0063 34.6369 41.1323 34.7022 41.277C34.7675 41.417 34.8002 41.5687 34.8002 41.732ZM38.1499 49.096C38.3319 49.306 38.5279 49.453 38.7379 49.537C38.9526 49.621 39.1813 49.663 39.4239 49.663C39.6573 49.663 39.8696 49.6187 40.0609 49.53C40.2523 49.4413 40.4156 49.3037 40.5509 49.117C40.6909 48.9257 40.7983 48.683 40.8729 48.389C40.9476 48.095 40.9849 47.745 40.9849 47.339C40.9849 46.9377 40.9523 46.597 40.8869 46.317C40.8263 46.037 40.7376 45.8107 40.6209 45.638C40.5089 45.4653 40.3713 45.3417 40.2079 45.267C40.0446 45.1877 39.8626 45.148 39.6619 45.148C39.3213 45.148 39.0343 45.2157 38.8009 45.351C38.5723 45.4817 38.3553 45.6753 38.1499 45.932V49.096ZM38.0379 44.728C38.1826 44.5693 38.3366 44.4247 38.4999 44.294C38.6633 44.1587 38.8383 44.0443 39.0249 43.951C39.2116 43.853 39.4123 43.7783 39.6269 43.727C39.8416 43.671 40.0749 43.643 40.3269 43.643C40.7143 43.643 41.0689 43.727 41.3909 43.895C41.7176 44.0583 41.9976 44.2987 42.2309 44.616C42.4643 44.9287 42.6463 45.3137 42.7769 45.771C42.9076 46.2283 42.9729 46.751 42.9729 47.339C42.9729 47.8803 42.8983 48.382 42.7489 48.844C42.6043 49.3013 42.3966 49.698 42.1259 50.034C41.8553 50.37 41.5286 50.6337 41.1459 50.825C40.7679 51.0117 40.3456 51.105 39.8789 51.105C39.4869 51.105 39.1533 51.0467 38.8779 50.93C38.6073 50.8133 38.3646 50.6547 38.1499 50.454V53.331H36.2179V43.783H37.4079C37.6506 43.783 37.8116 43.895 37.8909 44.119L38.0379 44.728Z" fill="#E07B2C"/>
<path d="M32.7162 20.8971L35.4032 18.2103C34.9829 17.2193 34.9204 16.113 35.2264 15.081C35.5325 14.049 36.1879 13.1555 37.0805 12.5537C37.9731 11.952 39.0472 11.6793 40.1188 11.7826C41.1904 11.8859 42.1926 12.3586 42.9538 13.1198C43.7151 13.8809 44.1878 14.8831 44.2911 15.9546C44.3944 17.026 44.1217 18.1001 43.5199 18.9926C42.9181 19.8851 42.0246 20.5405 40.9925 20.8465C39.9603 21.1525 38.8539 21.0901 37.8628 20.6698L35.1747 23.3566L42.5677 30.7478C42.7831 30.9631 42.9541 31.2188 43.0707 31.5003C43.1873 31.7817 43.2473 32.0834 43.2473 32.388C43.2473 32.6926 43.1873 32.9943 43.0707 33.2757C42.9541 33.5572 42.7831 33.8129 42.5677 34.0282L41.7478 34.8481L27.5695 20.6698C26.5784 21.0901 25.472 21.1525 24.4399 20.8465C23.4078 20.5405 22.5143 19.8851 21.9124 18.9926C21.3106 18.1001 21.038 17.026 21.1413 15.9546C21.2445 14.8831 21.7173 13.8809 22.4785 13.1198C23.2397 12.3586 24.242 11.8859 25.3136 11.7826C26.3851 11.6793 27.4592 11.952 28.3518 12.5537C29.2444 13.1555 29.8999 14.049 30.2059 15.081C30.5119 16.113 30.4495 17.2193 30.0292 18.2103L32.7162 20.8983L32.7162 20.8971ZM37.3549 16.3991C37.3549 17.0142 37.5993 17.604 38.0342 18.039C38.4692 18.4739 39.0591 18.7182 39.6743 18.7182C40.2894 18.7182 40.8793 18.4739 41.3143 18.039C41.7493 17.604 41.9936 17.0142 41.9936 16.3991C41.9936 15.784 41.7493 15.1941 41.3143 14.7592C40.8793 14.3242 40.2894 14.0799 39.6743 14.0799C39.0591 14.0799 38.4692 14.3242 38.0342 14.7592C37.5993 15.1941 37.3549 15.784 37.3549 16.3991ZM23.4387 16.3991C23.4387 17.0142 23.6831 17.604 24.1181 18.039C24.553 18.4739 25.143 18.7182 25.7581 18.7182C26.3732 18.7182 26.9632 18.4739 27.3981 18.039C27.8331 17.604 28.0775 17.0142 28.0775 16.3991C28.0775 15.784 27.8331 15.1941 27.3981 14.7592C26.9632 14.3242 26.3732 14.0799 25.7581 14.0799C25.143 14.0799 24.553 14.3242 24.1181 14.7592C23.6831 15.1941 23.4387 15.784 23.4387 16.3991ZM31.0776 27.4557L23.6834 34.8481L22.8635 34.0282C22.6481 33.8129 22.4771 33.5572 22.3605 33.2757C22.2439 32.9943 22.1839 32.6926 22.1839 32.388C22.1839 32.0834 22.2439 31.7817 22.3605 31.5003C22.4771 31.2188 22.6481 30.9631 22.8635 30.7478L28.6167 24.9962L31.0776 27.4545L31.0776 27.4557ZM33.8759 27.9949L33.8759 30.3141L31.5565 30.3141L31.5565 27.9949L33.8759 27.9949ZM33.8759 32.6333L33.8759 34.9524L31.5565 34.9524L31.5565 32.6333L33.8759 32.6333ZM33.8759 16.3991L33.8759 18.7182L31.5565 18.7182L31.5565 16.3991L33.8759 16.3991ZM33.8759 11.7607L33.8759 14.0799L31.5565 14.0799L31.5565 11.7607L33.8759 11.7607Z" fill="#E07B2C"/>
</svg>
