<svg width="94" height="88" viewBox="0 0 94 88" fill="none" xmlns="http://www.w3.org/2000/svg">
<path d="M0 9.59274C0.39195 8.97193 0.375389 8.22733 0.607247 7.55479C2.17137 3.00774 6.29881 0.0237944 11.3022 0.0182514C35.1062 -0.00392028 58.9122 -0.00946322 82.7163 0.0219467C88.233 0.0293373 92.3899 3.42346 93.6945 8.81488C93.9172 9.73501 94 10.6865 94 11.6399C94 25.4936 94 39.3453 94 53.199C94 55.5307 92.9309 56.9663 90.9711 57.3691C89.0114 57.7719 86.7682 56.4379 86.6615 53.5944C86.6394 53.0124 86.6578 52.4267 86.6578 51.8428C86.6578 42.2905 86.6486 32.7382 86.6744 23.1859C86.6762 22.4671 86.4977 22.2916 85.7838 22.2934C59.9298 22.3138 34.0758 22.3138 8.21992 22.2934C7.50778 22.2934 7.32745 22.4616 7.32745 23.184C7.34953 39.556 7.34401 55.9261 7.34585 72.2981C7.34585 76.3721 10.5955 79.6258 14.6623 79.6258C36.203 79.6277 57.7418 79.6258 79.2825 79.6258C83.3088 79.6258 86.4812 76.5698 86.656 72.5364C86.748 70.4227 87.8355 69.0721 89.7566 68.7081C91.9004 68.3016 94.0644 69.9257 93.9577 72.4644C93.724 77.9962 91.2306 82.255 86.4462 85.0745C84.7349 86.0815 82.8653 86.6875 80.8669 86.8224C80.7381 86.8316 80.6295 86.8538 80.5982 87.0016H13.0356C12.9896 86.7965 12.8221 86.8409 12.6786 86.815C6.84349 85.7896 2.88902 82.4934 0.805982 76.9227C0.439794 75.9435 0.443474 74.87 0 73.9148L0 9.59274ZM57.7529 7.41807C57.556 7.40144 57.4345 7.38296 57.3131 7.38296C41.8007 7.38296 26.2883 7.37926 10.7759 7.38665C8.96149 7.38665 7.36609 9.02551 7.34585 10.8565C7.33481 11.9004 7.41393 12.9518 7.32193 13.9883C7.24464 14.8493 7.57035 14.9583 8.32849 14.9564C24.5144 14.9343 40.7003 14.9398 56.8862 14.9398C57.1861 14.9398 57.4861 14.9398 57.8578 14.9398C57.4235 13.6779 57.1088 12.451 57.1364 11.2094C57.164 9.94195 57.3407 8.66707 57.7529 7.41991V7.41807ZM68.1258 7.38111C66.0096 7.38111 64.4436 8.94237 64.4418 11.0561C64.4418 13.1809 65.9967 14.7532 68.1018 14.7532C70.218 14.7532 71.784 13.192 71.7858 11.0782C71.7858 8.95346 70.2309 7.38111 68.1258 7.38111ZM82.7825 7.38111C80.6829 7.38296 79.128 8.96085 79.1298 11.0856C79.1317 13.1938 80.7031 14.7551 82.8211 14.7532C84.9207 14.7514 86.4757 13.1735 86.4738 11.0487C86.472 8.94052 84.9005 7.37926 82.7825 7.38111Z" fill="#909090"/>
<path d="M66.0126 47.1901H58.4257C54.7252 47.1901 51.0246 47.1956 47.3223 47.1882C45.1822 47.1827 43.7064 46.1148 43.3108 44.3152C42.7624 41.8208 44.5253 39.8272 47.3186 39.8198C52.1508 39.8088 56.983 39.8161 61.8171 39.8161H65.9537C66.0218 39.4836 65.7311 39.3986 65.5839 39.2471C64.408 38.0406 63.1677 36.8932 62.0434 35.6423C60.7958 34.2529 60.9265 32.1669 62.2348 30.8384C63.5873 29.4675 65.6998 29.2901 67.0836 30.5946C69.4463 32.821 71.8219 35.0474 74.0062 37.4456C77.1271 40.873 77.0884 46.1813 73.9694 49.6216C71.8514 51.9589 69.5935 54.1723 67.343 56.384C65.8396 57.8602 63.6959 57.814 62.2753 56.3932C60.851 54.9668 60.8216 52.8753 62.2311 51.2993C62.8439 50.6138 63.4879 49.9579 64.143 49.313C64.7963 48.6682 65.4808 48.0548 66.1525 47.4284C66.1065 47.349 66.0586 47.2695 66.0126 47.1901Z" fill="#909090"/>
<path d="M27.2732 62.3555C28.7011 63.6433 30.2229 64.8442 31.5349 66.2429C33.2352 68.0554 32.4789 70.9803 30.1843 71.9078C28.8207 72.4584 27.5069 72.2976 26.4617 71.2759C24.0953 68.9626 21.7012 66.666 19.5004 64.1994C16.4458 60.7757 16.5893 55.3787 19.7231 52.0271C21.8153 49.7896 24.0069 47.6445 26.1636 45.4661C27.2456 44.3742 28.5521 43.9991 30.004 44.5054C31.4558 45.0116 32.2728 46.1239 32.4274 47.6482C32.5305 48.6533 32.2471 49.6141 31.5073 50.3254C30.1401 51.641 28.7214 52.8992 27.3155 54.1889C27.7921 54.6822 28.0792 54.5547 28.3294 54.5547C34.1719 54.5639 40.0143 54.5584 45.8568 54.5658C46.8762 54.5658 47.8607 54.7321 48.6814 55.4139C49.9106 56.4375 50.3467 57.9747 49.8352 59.4454C49.285 61.027 47.9122 61.9286 45.9672 61.9305C40.156 61.9397 34.343 61.9342 28.5318 61.9342H27.6265C27.5087 62.0746 27.3928 62.215 27.275 62.3555H27.2732Z" fill="#909090"/>
</svg>
