<svg width="65" height="64" viewBox="0 0 65 64" fill="none" xmlns="http://www.w3.org/2000/svg">
<g clip-path="url(#clip0_3001_370990)">
<path d="M31.5729 0.5H33.1921C50.3532 0.5 64.265 14.4118 64.265 31.5729C64.265 48.734 50.3532 62.6459 33.1921 62.6459H31.5729C14.4118 62.6459 0.5 48.734 0.5 31.5729C0.5 14.4118 14.4118 0.5 31.5729 0.5Z" fill="#498E4C" stroke="#498E4C"/>
<path d="M15.98 46.501C16.0967 46.501 16.1947 46.543 16.274 46.627L17.107 47.516C16.6963 48.0387 16.1853 48.4353 15.574 48.706C14.9673 48.9767 14.244 49.112 13.404 49.112C12.6433 49.112 11.9597 48.9837 11.353 48.727C10.7463 48.4657 10.2307 48.104 9.806 47.642C9.38133 47.18 9.05467 46.6317 8.826 45.997C8.59733 45.3623 8.483 44.6693 8.483 43.918C8.483 43.414 8.53667 42.9357 8.644 42.483C8.756 42.0257 8.917 41.6057 9.127 41.223C9.337 40.8403 9.589 40.495 9.883 40.187C10.1817 39.879 10.5177 39.6177 10.891 39.403C11.2643 39.1837 11.6703 39.018 12.109 38.906C12.5523 38.7893 13.0237 38.731 13.523 38.731C13.8963 38.731 14.2487 38.7637 14.58 38.829C14.916 38.8943 15.2287 38.9853 15.518 39.102C15.8073 39.2187 16.0733 39.361 16.316 39.529C16.5633 39.6923 16.785 39.872 16.981 40.068L16.274 41.034C16.232 41.0947 16.1783 41.1483 16.113 41.195C16.0477 41.2417 15.959 41.265 15.847 41.265C15.735 41.265 15.6207 41.2253 15.504 41.146C15.392 41.0667 15.252 40.978 15.084 40.88C14.9207 40.782 14.713 40.6933 14.461 40.614C14.2137 40.5347 13.8987 40.495 13.516 40.495C13.0913 40.495 12.7017 40.572 12.347 40.726C11.9923 40.88 11.6867 41.104 11.43 41.398C11.178 41.6873 10.982 42.0443 10.842 42.469C10.702 42.8937 10.632 43.3767 10.632 43.918C10.632 44.464 10.7067 44.9517 10.856 45.381C11.01 45.8057 11.2177 46.165 11.479 46.459C11.745 46.753 12.053 46.977 12.403 47.131C12.7577 47.2803 13.1357 47.355 13.537 47.355C13.775 47.355 13.9897 47.3433 14.181 47.32C14.377 47.2967 14.5567 47.257 14.72 47.201C14.888 47.145 15.0443 47.0727 15.189 46.984C15.3383 46.8953 15.4877 46.7833 15.637 46.648C15.6883 46.606 15.742 46.571 15.798 46.543C15.854 46.515 15.9147 46.501 15.98 46.501ZM19.9725 38.563V49H18.0405V38.563H19.9725ZM23.5692 41.783V49H21.6372V41.783H23.5692ZM23.8002 39.732C23.8002 39.8953 23.7675 40.047 23.7022 40.187C23.6369 40.327 23.5482 40.4507 23.4362 40.558C23.3289 40.6653 23.2005 40.7493 23.0512 40.81C22.9065 40.8707 22.7502 40.901 22.5822 40.901C22.4235 40.901 22.2719 40.8707 22.1272 40.81C21.9872 40.7493 21.8635 40.6653 21.7562 40.558C21.6489 40.4507 21.5625 40.327 21.4972 40.187C21.4365 40.047 21.4062 39.8953 21.4062 39.732C21.4062 39.5687 21.4365 39.417 21.4972 39.277C21.5625 39.1323 21.6489 39.0063 21.7562 38.899C21.8635 38.7917 21.9872 38.7077 22.1272 38.647C22.2719 38.5863 22.4235 38.556 22.5822 38.556C22.7502 38.556 22.9065 38.5863 23.0512 38.647C23.2005 38.7077 23.3289 38.7917 23.4362 38.899C23.5482 39.0063 23.6369 39.1323 23.7022 39.277C23.7675 39.417 23.8002 39.5687 23.8002 39.732ZM27.1499 47.096C27.3319 47.306 27.5279 47.453 27.7379 47.537C27.9526 47.621 28.1813 47.663 28.4239 47.663C28.6573 47.663 28.8696 47.6187 29.0609 47.53C29.2523 47.4413 29.4156 47.3037 29.5509 47.117C29.6909 46.9257 29.7983 46.683 29.8729 46.389C29.9476 46.095 29.9849 45.745 29.9849 45.339C29.9849 44.9377 29.9523 44.597 29.8869 44.317C29.8263 44.037 29.7376 43.8107 29.6209 43.638C29.5089 43.4653 29.3713 43.3417 29.2079 43.267C29.0446 43.1877 28.8626 43.148 28.6619 43.148C28.3213 43.148 28.0343 43.2157 27.8009 43.351C27.5723 43.4817 27.3553 43.6753 27.1499 43.932V47.096ZM27.0379 42.728C27.1826 42.5693 27.3366 42.4247 27.4999 42.294C27.6633 42.1587 27.8383 42.0443 28.0249 41.951C28.2116 41.853 28.4123 41.7783 28.6269 41.727C28.8416 41.671 29.0749 41.643 29.3269 41.643C29.7143 41.643 30.0689 41.727 30.3909 41.895C30.7176 42.0583 30.9976 42.2987 31.2309 42.616C31.4643 42.9287 31.6463 43.3137 31.7769 43.771C31.9076 44.2283 31.9729 44.751 31.9729 45.339C31.9729 45.8803 31.8983 46.382 31.7489 46.844C31.6043 47.3013 31.3966 47.698 31.1259 48.034C30.8553 48.37 30.5286 48.6337 30.1459 48.825C29.7679 49.0117 29.3456 49.105 28.8789 49.105C28.4869 49.105 28.1533 49.0467 27.8779 48.93C27.6073 48.8133 27.3646 48.6547 27.1499 48.454V51.331H25.2179V41.783H26.4079C26.6506 41.783 26.8116 41.895 26.8909 42.119L27.0379 42.728ZM35.148 47.096C35.33 47.306 35.526 47.453 35.736 47.537C35.9506 47.621 36.1793 47.663 36.422 47.663C36.6553 47.663 36.8676 47.6187 37.059 47.53C37.2503 47.4413 37.4136 47.3037 37.549 47.117C37.689 46.9257 37.7963 46.683 37.871 46.389C37.9456 46.095 37.983 45.745 37.983 45.339C37.983 44.9377 37.9503 44.597 37.885 44.317C37.8243 44.037 37.7356 43.8107 37.619 43.638C37.507 43.4653 37.3693 43.3417 37.206 43.267C37.0426 43.1877 36.8606 43.148 36.66 43.148C36.3193 43.148 36.0323 43.2157 35.799 43.351C35.5703 43.4817 35.3533 43.6753 35.148 43.932V47.096ZM35.036 42.728C35.1806 42.5693 35.3346 42.4247 35.498 42.294C35.6613 42.1587 35.8363 42.0443 36.023 41.951C36.2096 41.853 36.4103 41.7783 36.625 41.727C36.8396 41.671 37.073 41.643 37.325 41.643C37.7123 41.643 38.067 41.727 38.389 41.895C38.7156 42.0583 38.9956 42.2987 39.229 42.616C39.4623 42.9287 39.6443 43.3137 39.775 43.771C39.9056 44.2283 39.971 44.751 39.971 45.339C39.971 45.8803 39.8963 46.382 39.747 46.844C39.6023 47.3013 39.3946 47.698 39.124 48.034C38.8533 48.37 38.5266 48.6337 38.144 48.825C37.766 49.0117 37.3436 49.105 36.877 49.105C36.485 49.105 36.1513 49.0467 35.876 48.93C35.6053 48.8133 35.3626 48.6547 35.148 48.454V51.331H33.216V41.783H34.406C34.6486 41.783 34.8096 41.895 34.889 42.119L35.036 42.728ZM45.792 44.541C45.792 44.3403 45.764 44.149 45.708 43.967C45.6567 43.785 45.5727 43.624 45.456 43.484C45.3393 43.344 45.1923 43.2343 45.015 43.155C44.8377 43.071 44.6253 43.029 44.378 43.029C43.916 43.029 43.5543 43.1597 43.293 43.421C43.0317 43.6823 42.8613 44.0557 42.782 44.541H45.792ZM42.754 45.689C42.8147 46.3657 43.006 46.8603 43.328 47.173C43.6547 47.4857 44.0793 47.642 44.602 47.642C44.868 47.642 45.0967 47.6117 45.288 47.551C45.484 47.4857 45.6543 47.4157 45.799 47.341C45.9483 47.2617 46.0813 47.1917 46.198 47.131C46.3193 47.0657 46.4383 47.033 46.555 47.033C46.7043 47.033 46.821 47.089 46.905 47.201L47.465 47.901C47.2597 48.139 47.0333 48.3373 46.786 48.496C46.5387 48.65 46.282 48.7737 46.016 48.867C45.75 48.9557 45.4817 49.0163 45.211 49.049C44.9403 49.0863 44.679 49.105 44.427 49.105C43.923 49.105 43.4517 49.0233 43.013 48.86C42.579 48.692 42.1987 48.447 41.872 48.125C41.55 47.7983 41.2957 47.3947 41.109 46.914C40.9223 46.4333 40.829 45.8757 40.829 45.241C40.829 44.751 40.9083 44.289 41.067 43.855C41.2303 43.421 41.4637 43.043 41.767 42.721C42.0703 42.399 42.439 42.1447 42.873 41.958C43.307 41.7667 43.797 41.671 44.343 41.671C44.805 41.671 45.2297 41.7457 45.617 41.895C46.009 42.0397 46.345 42.252 46.625 42.532C46.9097 42.812 47.129 43.1573 47.283 43.568C47.4417 43.974 47.521 44.4383 47.521 44.961C47.521 45.1057 47.514 45.2247 47.5 45.318C47.486 45.4113 47.4627 45.486 47.43 45.542C47.3973 45.598 47.353 45.6377 47.297 45.661C47.241 45.6797 47.1687 45.689 47.08 45.689H42.754ZM53.1789 43.659C52.9969 43.449 52.7985 43.302 52.5839 43.218C52.3739 43.134 52.1499 43.092 51.9119 43.092C51.6785 43.092 51.4662 43.1363 51.2749 43.225C51.0835 43.3137 50.9179 43.4537 50.7779 43.645C50.6425 43.8317 50.5375 44.072 50.4629 44.366C50.3882 44.66 50.3509 45.01 50.3509 45.416C50.3509 45.8173 50.3812 46.158 50.4419 46.438C50.5025 46.718 50.5889 46.9443 50.7009 47.117C50.8175 47.2897 50.9575 47.4157 51.1209 47.495C51.2842 47.5697 51.4662 47.607 51.6669 47.607C52.0075 47.607 52.2922 47.5393 52.5209 47.404C52.7542 47.2687 52.9735 47.0773 53.1789 46.83V43.659ZM55.1109 38.563V49H53.9209C53.6735 49 53.5149 48.888 53.4449 48.664L53.2839 48.034C53.1392 48.1927 52.9852 48.3373 52.8219 48.468C52.6632 48.5987 52.4905 48.713 52.3039 48.811C52.1172 48.9043 51.9165 48.9767 51.7019 49.028C51.4872 49.0793 51.2539 49.105 51.0019 49.105C50.6145 49.105 50.2599 49.0233 49.9379 48.86C49.6159 48.6967 49.3359 48.4587 49.0979 48.146C48.8645 47.8287 48.6825 47.4413 48.5519 46.984C48.4212 46.5267 48.3559 46.004 48.3559 45.416C48.3559 44.8793 48.4282 44.38 48.5729 43.918C48.7222 43.456 48.9322 43.057 49.2029 42.721C49.4735 42.385 49.8002 42.1213 50.1829 41.93C50.5655 41.7387 50.9902 41.643 51.4569 41.643C51.8489 41.643 52.1779 41.7013 52.4439 41.818C52.7145 41.9347 52.9595 42.0933 53.1789 42.294V38.563H55.1109Z" fill="white"/>
<path d="M33.4111 16.7227L36.4999 16.7595L36.2647 36.5028C36.2563 37.2039 35.6812 37.7656 34.98 37.7572L33.1607 37.7355L33.4111 16.7227Z" fill="white" stroke="white" stroke-width="0.5"/>
<circle cx="36.6614" cy="15.9675" r="4.47362" transform="rotate(45.8941 36.6614 15.9675)" fill="white" stroke="white" stroke-width="0.5"/>
<circle cx="36.6666" cy="15.9657" r="2.11181" transform="rotate(45.8941 36.6666 15.9657)" fill="#498E4C" stroke="white" stroke-width="0.5"/>
<path d="M32.9352 17.0975L29.9114 17.1784L29.7228 36.5132C29.7159 37.2143 30.2786 37.7675 30.9796 37.7488L32.7342 37.7018L32.9352 17.0975Z" fill="white" stroke="white" stroke-width="0.5"/>
<path d="M26.4372 19.0511C28.1324 20.7055 30.9105 20.6302 32.6422 18.8558C34.3739 17.0814 34.3815 14.3023 32.6863 12.6479C30.9911 10.9935 28.213 11.0688 26.4813 12.8432C24.7496 14.6177 24.742 17.3968 26.4372 19.0511Z" fill="white" stroke="white" stroke-width="0.5"/>
<path d="M28.0754 17.3614C28.8706 18.1374 30.1805 18.1068 31.0012 17.2659C31.8218 16.425 31.8205 15.1147 31.0254 14.3387C30.2302 13.5627 28.9203 13.5933 28.0996 14.4342C27.279 15.2751 27.2803 16.5854 28.0754 17.3614Z" fill="#498E4C" stroke="white" stroke-width="0.5"/>
</g>
<defs>
<clipPath id="clip0_3001_370990">
<rect width="64.77" height="63.15" fill="white"/>
</clipPath>
</defs>
</svg>
