<svg width="36" height="36" viewBox="0 0 36 36" fill="none" xmlns="http://www.w3.org/2000/svg">
<path d="M7 10.488C6.464 10.488 6.06 10.656 5.788 10.992C5.524 11.32 5.392 11.776 5.392 12.36C5.392 12.8 5.412 13.22 5.452 13.62C5.492 14.02 5.536 14.408 5.584 14.784C5.64 15.152 5.688 15.516 5.728 15.876C5.768 16.236 5.788 16.6 5.788 16.968C5.788 17.272 5.744 17.564 5.656 17.844C5.576 18.116 5.456 18.368 5.296 18.6C5.136 18.824 4.936 19.024 4.696 19.2C4.464 19.368 4.2 19.496 3.904 19.584C4.2 19.672 4.464 19.804 4.696 19.98C4.936 20.148 5.136 20.348 5.296 20.58C5.456 20.804 5.576 21.056 5.656 21.336C5.744 21.608 5.788 21.892 5.788 22.188C5.788 22.556 5.768 22.924 5.728 23.292C5.688 23.652 5.64 24.02 5.584 24.396C5.536 24.764 5.492 25.148 5.452 25.548C5.412 25.948 5.392 26.368 5.392 26.808C5.392 27.384 5.524 27.84 5.788 28.176C6.06 28.512 6.464 28.68 7 28.68H7.06C7.116 28.68 7.184 28.692 7.264 28.716C7.344 28.74 7.42 28.78 7.492 28.836C7.564 28.892 7.624 28.96 7.672 29.04C7.728 29.12 7.756 29.22 7.756 29.34V30.78H7.12C6.328 30.78 5.64 30.68 5.056 30.48C4.48 30.28 4 29.996 3.616 29.628C3.24 29.268 2.96 28.828 2.776 28.308C2.6 27.796 2.512 27.228 2.512 26.604C2.512 26.22 2.536 25.844 2.584 25.476C2.632 25.1 2.684 24.728 2.74 24.36C2.804 23.984 2.86 23.616 2.908 23.256C2.964 22.888 2.992 22.52 2.992 22.152C2.992 21.672 2.888 21.28 2.68 20.976C2.472 20.672 2.12 20.52 1.624 20.52V18.648C2.12 18.648 2.472 18.496 2.68 18.192C2.888 17.888 2.992 17.496 2.992 17.016C2.992 16.648 2.964 16.284 2.908 15.924C2.86 15.556 2.804 15.188 2.74 14.82C2.684 14.444 2.632 14.072 2.584 13.704C2.536 13.328 2.512 12.948 2.512 12.564C2.512 11.94 2.6 11.372 2.776 10.86C2.96 10.34 3.24 9.896 3.616 9.528C4 9.16 4.48 8.876 5.056 8.676C5.64 8.476 6.328 8.376 7.12 8.376H7.756V9.828C7.756 9.948 7.728 10.048 7.672 10.128C7.624 10.208 7.564 10.276 7.492 10.332C7.42 10.388 7.344 10.428 7.264 10.452C7.184 10.476 7.116 10.488 7.06 10.488H7ZM25.1228 9.588V27H23.2628C22.9828 27 22.7468 26.956 22.5548 26.868C22.3628 26.772 22.1748 26.612 21.9908 26.388L13.3148 15.348C13.3388 15.628 13.3548 15.904 13.3628 16.176C13.3788 16.448 13.3868 16.7 13.3868 16.932V27H10.2068V9.588H12.1028C12.2548 9.588 12.3828 9.596 12.4868 9.612C12.5988 9.62 12.6988 9.648 12.7868 9.696C12.8748 9.736 12.9588 9.792 13.0388 9.864C13.1188 9.936 13.2068 10.032 13.3028 10.152L22.0388 21.24C22.0068 20.936 21.9828 20.644 21.9668 20.364C21.9508 20.076 21.9428 19.804 21.9428 19.548V9.588H25.1228ZM33.7133 20.52C33.2173 20.52 32.8653 20.672 32.6573 20.976C32.4493 21.28 32.3453 21.672 32.3453 22.152C32.3453 22.52 32.3693 22.888 32.4173 23.256C32.4653 23.616 32.5173 23.984 32.5733 24.36C32.6373 24.728 32.6933 25.1 32.7413 25.476C32.7973 25.844 32.8253 26.22 32.8253 26.604C32.8253 27.228 32.7333 27.796 32.5493 28.308C32.3733 28.828 32.0933 29.268 31.7093 29.628C31.3333 29.996 30.8533 30.28 30.2693 30.48C29.6933 30.68 29.0093 30.78 28.2173 30.78H27.5813V29.34C27.5813 29.22 27.6053 29.12 27.6533 29.04C27.7013 28.96 27.7613 28.892 27.8333 28.836C27.9053 28.78 27.9813 28.74 28.0613 28.716C28.1413 28.692 28.2133 28.68 28.2773 28.68H28.3373C28.8733 28.68 29.2733 28.512 29.5373 28.176C29.8093 27.84 29.9453 27.384 29.9453 26.808C29.9453 26.368 29.9253 25.948 29.8853 25.548C29.8453 25.148 29.7973 24.764 29.7413 24.396C29.6933 24.02 29.6493 23.652 29.6093 23.292C29.5693 22.924 29.5493 22.556 29.5493 22.188C29.5493 21.892 29.5893 21.608 29.6693 21.336C29.7573 21.056 29.8813 20.804 30.0413 20.58C30.2013 20.348 30.3973 20.148 30.6293 19.98C30.8693 19.804 31.1413 19.672 31.4453 19.584C31.1413 19.496 30.8693 19.368 30.6293 19.2C30.3973 19.024 30.2013 18.824 30.0413 18.6C29.8813 18.368 29.7573 18.116 29.6693 17.844C29.5893 17.564 29.5493 17.272 29.5493 16.968C29.5493 16.6 29.5693 16.236 29.6093 15.876C29.6493 15.516 29.6933 15.152 29.7413 14.784C29.7973 14.408 29.8453 14.02 29.8853 13.62C29.9253 13.22 29.9453 12.8 29.9453 12.36C29.9453 11.776 29.8093 11.32 29.5373 10.992C29.2733 10.656 28.8733 10.488 28.3373 10.488H28.2773C28.2133 10.488 28.1413 10.476 28.0613 10.452C27.9813 10.428 27.9053 10.388 27.8333 10.332C27.7613 10.276 27.7013 10.208 27.6533 10.128C27.6053 10.048 27.5813 9.948 27.5813 9.828V8.376H28.2173C29.0093 8.376 29.6933 8.476 30.2693 8.676C30.8533 8.876 31.3333 9.16 31.7093 9.528C32.0933 9.896 32.3733 10.34 32.5493 10.86C32.7333 11.372 32.8253 11.94 32.8253 12.564C32.8253 12.948 32.7973 13.328 32.7413 13.704C32.6933 14.072 32.6373 14.444 32.5733 14.82C32.5173 15.188 32.4653 15.556 32.4173 15.924C32.3693 16.284 32.3453 16.648 32.3453 17.016C32.3453 17.496 32.4493 17.888 32.6573 18.192C32.8653 18.496 33.2173 18.648 33.7133 18.648V20.52Z" fill="white"/>
</svg>
