<svg width="20" height="21" viewBox="0 0 20 21" fill="none" xmlns="http://www.w3.org/2000/svg">
<path d="M1 3.43429C1 2.32718 1.89543 1.42969 3 1.42969H6.27924C6.70967 1.42969 7.09181 1.70575 7.22792 2.11503L8.7257 6.6188C8.8831 7.092 8.6694 7.60918 8.2243 7.83225L5.96701 8.96348C7.06925 11.4138 9.0388 13.3879 11.4835 14.4927L12.6121 12.2302C12.8347 11.784 13.3507 11.5699 13.8228 11.7276L18.3162 13.2289C18.7246 13.3653 19 13.7483 19 14.1797V17.4665C19 18.5736 18.1046 19.4711 17 19.4711H16C7.71573 19.4711 1 12.7399 1 4.43659V3.43429Z" stroke="#E07B2C" stroke-width="2" stroke-linecap="round" stroke-linejoin="round"/>
</svg>
