<svg width="36" height="36" viewBox="0 0 36 36" fill="none" xmlns="http://www.w3.org/2000/svg">
<path d="M18 5C12.4792 5 8 8.72832 8 13.3203C8 18.6039 14.6667 26.977 17.1146 29.869C17.2162 29.9911 17.3494 30.0905 17.5032 30.159C17.6571 30.2275 17.8273 30.2632 18 30.2632C18.1727 30.2632 18.3429 30.2275 18.4968 30.159C18.6506 30.0905 18.7838 29.9911 18.8854 29.869C21.3333 26.9782 28 18.6082 28 13.3203C28 8.72832 23.5208 5 18 5Z" stroke="#B290B9" stroke-width="2.66667" stroke-linecap="round" stroke-linejoin="round"/>
<path d="M17.9974 18.3337C19.8383 18.3337 21.3307 16.8413 21.3307 15.0003C21.3307 13.1594 19.8383 11.667 17.9974 11.667C16.1564 11.667 14.6641 13.1594 14.6641 15.0003C14.6641 16.8413 16.1564 18.3337 17.9974 18.3337Z" stroke="#B290B9" stroke-width="2.66667" stroke-linecap="round" stroke-linejoin="round"/>
</svg>
