<svg width="36" height="36" viewBox="0 0 36 36" fill="none" xmlns="http://www.w3.org/2000/svg">
<path d="M4.1 10.2749C5.9 9.47495 8.5 8.67495 11.1 8.47495C13.8 8.17495 16.2 8.57495 17.5 9.97495V29.975C15.6 28.875 13.1 28.775 10.9 28.975C8.5 29.175 6 29.8749 4.1 30.6749V10.2749ZM19.5 9.97495C20.8 8.57495 23.2 8.17495 25.9 8.47495C28.4 8.77495 31.1 9.57495 32.9 10.2749V30.6749C31 29.9749 28.6 29.275 26.1 28.975C23.8 28.775 21.4 28.875 19.5 29.975V9.97495ZM18.5 8.07495C16.5 6.37495 13.5 6.07495 10.8 6.37495C7.7 6.67495 4.6 7.77495 2.6 8.67495C2.4 8.77495 2.3 8.87495 2.2 8.97495C2.1 9.17495 2 9.37495 2 9.57495V32.1749C2 32.3749 2 32.4749 2.1 32.6749C2.2 32.8749 2.3 32.9749 2.4 33.0749C2.5 33.1749 2.7 33.175 2.9 33.275C3.1 33.275 3.2 33.2749 3.4 33.1749C5.2 32.3749 8.1 31.3749 11 31.0749C13.9 30.7749 16.3 31.275 17.6 32.875C17.7 32.975 17.8 33.0749 18 33.1749C18.1 33.2749 18.3 33.275 18.4 33.275C18.5 33.275 18.7 33.2749 18.8 33.1749C18.9 33.0749 19.1 32.975 19.2 32.875C20.5 31.275 22.9 30.7749 25.8 31.0749C28.6 31.3749 31.6 32.3749 33.4 33.1749C33.6 33.2749 33.7 33.275 33.9 33.275C34.1 33.275 34.2 33.1749 34.4 33.0749C34.5 32.9749 34.7 32.8749 34.7 32.6749C34.8 32.4749 34.8 32.3749 34.8 32.1749V9.57495C34.8 9.37495 34.7 9.17495 34.6 8.97495C34.5 8.77495 34.3 8.67495 34.2 8.57495C32.2 7.67495 29.1 6.57495 26 6.27495C23.5 6.07495 20.5 6.37495 18.5 8.07495Z" fill="#B290B9"/>
<path d="M23 27.7754L24.5 31.2754L29.5 32.2754L31.5 29.2754L23 27.7754Z" fill="#583160"/>
<path d="M17.4016 2.075C17.2016 1.975 16.9016 1.975 16.7016 2.075C16.5016 2.175 16.3016 2.475 16.2016 2.675C16.1016 2.875 16.1016 3.175 16.1016 3.375C16.1016 3.875 16.3016 4.475 16.5016 5.075C16.6016 5.375 16.7016 5.575 16.9016 5.775L17.7016 5.275C17.6016 5.075 17.4016 4.875 17.3016 4.575C17.1016 4.075 17.0016 3.575 17.0016 3.275C17.0016 3.075 17.0016 2.975 17.0016 2.975C17.1016 2.975 17.1016 3.075 17.2016 3.175C17.4016 3.375 17.7016 3.775 17.9016 4.275C18.0016 4.575 18.1016 4.775 18.2016 5.075L19.0016 4.575C19.0016 4.375 19.0016 4.075 18.8016 3.875C18.5016 3.275 18.2016 2.775 17.9016 2.475C17.8016 2.275 17.6016 2.175 17.4016 2.075ZM19.4016 5.575L17.3016 6.775L21.6016 16.875L23.7016 15.675L19.4016 5.575ZM24.3016 16.475L23.2016 17.075C24.0016 18.575 24.9016 20.575 25.9016 22.875C27.0016 25.375 27.8016 27.675 28.4016 29.375C28.5016 29.775 28.7016 30.175 28.8016 30.575C28.6016 30.275 28.4016 29.975 28.2016 29.575C27.4016 28.075 26.3016 25.875 25.3016 23.375C24.3016 21.175 23.5016 19.075 23.0016 17.375L21.9016 17.975C22.4016 20.275 22.4016 22.775 22.5016 24.975C22.6016 27.375 22.8016 29.575 23.9016 31.075C25.7016 33.075 27.9016 33.575 29.6016 32.575C31.3016 31.575 32.3016 29.375 32.0016 26.375C31.8016 24.675 30.4016 23.275 28.8016 21.575C27.3016 19.975 25.6016 18.375 24.3016 16.475ZM25.8016 19.875C26.6016 20.775 27.4016 21.575 28.2016 22.375C29.8016 23.975 31.0016 25.475 31.1016 26.575C31.1016 26.975 31.1016 27.375 31.1016 27.775C30.3016 27.175 29.2016 25.975 28.0016 24.075C27.3016 22.775 26.6016 21.375 25.8016 19.875ZM23.1016 21.175C23.7016 22.875 24.2016 24.475 24.6016 25.875C25.2016 28.075 25.4016 29.875 25.2016 30.975C24.9016 30.775 24.7016 30.575 24.4016 30.275C23.5016 29.075 23.3016 27.075 23.2016 24.775C23.2016 23.575 23.2016 22.375 23.1016 21.175ZM28.1016 25.775C29.1016 27.275 30.1016 28.375 31.1016 28.775C30.9016 29.775 30.5016 30.575 29.9016 31.175V31.075C29.8016 30.575 29.6016 29.775 29.3016 28.975C28.9016 27.975 28.5016 26.875 28.1016 25.775ZM25.8016 26.975C26.3016 28.075 26.8016 29.075 27.3016 29.975C27.7016 30.775 28.1016 31.375 28.4016 31.875C28.4016 31.875 28.4016 31.875 28.5016 31.975C27.8016 32.175 27.0016 32.075 26.1016 31.575C26.4016 30.375 26.2016 28.875 25.8016 26.975Z" fill="#B290B9" stroke="#583160" stroke-width="0.25" stroke-miterlimit="10"/>
</svg>
