<svg width="36" height="37" viewBox="0 0 36 37" fill="none" xmlns="http://www.w3.org/2000/svg">
<g clip-path="url(#clip0_2901_69320)">
<path d="M17.1112 6.49622L13.4426 13.8337C12.7438 13.8337 10.5077 13.9385 7.15352 14.3578C3.79937 14.777 3.48404 15.9301 4.53309 16.9783L10.298 22.2194C9.94865 23.9664 9.24987 27.8797 9.24987 29.5569C9.24987 31.234 10.6474 31.3039 11.3462 31.1292L18.1593 27.9845L24.4484 31.1292C26.964 32.387 27.2435 30.2557 27.0688 29.0327L26.0206 22.2194C26.5447 21.6952 28.2218 20.1229 30.7374 18.0265C33.253 15.9301 31.4362 15.0566 30.2133 14.8819L22.8761 13.8337C22.0026 11.7373 20.046 7.33479 19.2075 6.49622C18.369 5.65765 17.4605 6.14682 17.1112 6.49622Z" stroke="#B290B9" stroke-width="2"/>
</g>
<defs>
<clipPath id="clip0_2901_69320">
<rect width="36" height="36" fill="white" transform="translate(0 0.917969)"/>
</clipPath>
</defs>
</svg>
