<svg width="20" height="24" viewBox="0 0 20 24" fill="none" xmlns="http://www.w3.org/2000/svg">
<path d="M16.3636 16.9185C15.3098 17.9745 13.1065 20.183 11.5902 21.7027C10.7115 22.5834 9.28844 22.5839 8.40973 21.7031C6.91998 20.2099 4.75919 18.0442 3.63597 16.9185C0.121342 13.3958 0.121342 7.68427 3.63597 4.16157C7.1506 0.638852 12.849 0.638852 16.3636 4.16157C19.8781 7.68427 19.8781 13.3958 16.3636 16.9185Z" stroke="#E07B2C" stroke-width="2" stroke-linecap="round" stroke-linejoin="round"/>
<path d="M13.3748 10.5389C13.3748 12.4072 11.8639 13.9216 9.99991 13.9216C8.13595 13.9216 6.625 12.4072 6.625 10.5389C6.625 8.67073 8.13595 7.15625 9.99991 7.15625C11.8639 7.15625 13.3748 8.67073 13.3748 10.5389Z" stroke="#E07B2C" stroke-width="2" stroke-linecap="round" stroke-linejoin="round"/>
</svg>
