<svg width="42" height="42" viewBox="0 0 42 42" fill="none" xmlns="http://www.w3.org/2000/svg">
<rect width="42" height="41.2759" rx="20.6379" fill="#EEC09D" fill-opacity="0.4"/>
<path d="M27.3636 27.5817C26.3098 28.6712 24.1065 30.9493 22.5902 32.517C21.7115 33.4255 20.2884 33.426 19.4097 32.5174C17.92 30.9771 15.7592 28.743 14.636 27.5817C11.1213 23.9478 11.1213 18.0561 14.636 14.4222C18.1506 10.7883 23.849 10.7883 27.3636 14.4222C30.8781 18.0561 30.8781 23.9478 27.3636 27.5817Z" stroke="#E07B2C" stroke-width="2" stroke-linecap="round" stroke-linejoin="round"/>
<path d="M24.3748 21.0021C24.3748 22.9294 22.8639 24.4916 20.9999 24.4916C19.1359 24.4916 17.625 22.9294 17.625 21.0021C17.625 19.075 19.1359 17.5127 20.9999 17.5127C22.8639 17.5127 24.3748 19.075 24.3748 21.0021Z" stroke="#E07B2C" stroke-width="2" stroke-linecap="round" stroke-linejoin="round"/>
</svg>
