<svg width="144" height="84" viewBox="0 0 144 84" fill="none" xmlns="http://www.w3.org/2000/svg">
<path d="M126.302 0H17.057C7.65088 0 0 6.93632 0 15.4625V68.5375C0 77.0637 7.65088 84 17.057 84H126.301C135.704 84 143.356 77.0637 143.356 68.5375V15.4625C143.356 6.93632 135.704 0 126.302 0ZM134.587 68.5375C134.587 72.2278 130.868 75.2312 126.301 75.2312H17.057C12.4868 75.2312 8.7688 72.2278 8.7688 68.5375V15.4625C8.7688 11.7722 12.4868 8.7688 17.057 8.7688H126.301C130.868 8.7688 134.587 11.7722 134.587 15.4625V68.5375Z" fill="#808080"/>
<path d="M47.7375 30.6797H38.9688V38.2268H47.7375V30.6797Z" fill="#808080"/>
<path d="M47.7375 60.8662H38.9688V68.4134H47.7375V60.8662Z" fill="#808080"/>
<path d="M47.7375 15.585H38.9688V23.1321H47.7375V15.585Z" fill="#808080"/>
<path d="M47.7375 45.7734H38.9688V53.3189H47.7375V45.7734Z" fill="#808080"/>
<path d="M87.606 29.968C87.606 23.1256 81.9254 17.5146 75.1498 17.5146C68.3074 17.5146 62.6953 23.0582 62.6953 29.968C62.6953 36.9493 68.3086 42.4225 75.1498 42.4225C81.9254 42.4225 87.606 36.8807 87.606 29.968ZM69.744 29.968C69.744 26.9571 72.2081 24.5633 75.1487 24.5633C78.0893 24.5633 80.5533 26.9588 80.5533 29.968C80.5533 32.9801 78.0893 35.3738 75.1487 35.3738C72.2081 35.3738 69.744 32.9783 69.744 29.968Z" fill="#808080"/>
<path d="M107.292 42.0138C100.45 41.989 94.8156 47.5135 94.7891 54.4245C94.7655 61.4028 100.359 66.8997 107.203 66.9262C113.979 66.951 119.676 61.4253 119.703 54.5155C119.726 47.6708 114.068 42.0368 107.292 42.0138ZM107.245 59.8758C104.305 59.8758 101.842 57.4774 101.842 54.4682C101.842 51.4562 104.306 49.0624 107.245 49.0624C110.189 49.0624 112.651 51.4579 112.651 54.4682C112.653 57.4792 110.189 59.8758 107.245 59.8758Z" fill="#808080"/>
<path d="M100.345 15.5577L73.9062 65.2646L81.6482 69.3825L108.087 19.6755L100.345 15.5577Z" fill="#808080"/>
</svg>
