<svg width="22" height="21" viewBox="0 0 22 21" fill="none" xmlns="http://www.w3.org/2000/svg">
<rect x="0.5" y="0.5" width="20.3026" height="20" rx="10" fill="white" fill-opacity="0.96" stroke="#4B4744"/>
<path d="M10.6328 6.5C10.6328 6.22386 10.8567 6 11.1328 6H11.1616C11.4378 6 11.6616 6.22386 11.6616 6.5C11.6616 6.77614 11.4378 7 11.1616 7H11.1328C10.8567 7 10.6328 6.77614 10.6328 6.5ZM10.6328 10.5144C10.6328 10.2303 10.8631 10 11.1472 10C11.4313 10 11.6616 10.2303 11.6616 10.5144V14.4856C11.6616 14.7697 11.4313 15 11.1472 15C10.8631 15 10.6328 14.7697 10.6328 14.4856V10.5144Z" fill="#323232" stroke="#4B4744"/>
</svg>
