<svg width="76" height="76" viewBox="0 0 76 76" fill="none" xmlns="http://www.w3.org/2000/svg">
<path fill-rule="evenodd" clip-rule="evenodd" d="M75.5984 37.9999C75.5984 58.7659 58.7645 75.5999 37.9984 75.5999C17.2325 75.5999 0.398438 58.7659 0.398438 37.9999C0.398438 17.234 17.2325 0.399902 37.9984 0.399902C58.7645 0.399902 75.5984 17.234 75.5984 37.9999ZM47.3984 23.8999C47.3984 29.0914 43.1901 33.2999 37.9984 33.2999C32.807 33.2999 28.5984 29.0914 28.5984 23.8999C28.5984 18.7084 32.807 14.4999 37.9984 14.4999C43.1901 14.4999 47.3984 18.7084 47.3984 23.8999ZM37.9981 42.6999C28.5157 42.6999 20.345 48.3164 16.631 56.4037C21.8024 62.4023 29.4569 66.1999 37.9983 66.1999C46.5397 66.1999 54.1942 62.4028 59.3656 56.4042C55.6516 48.3164 47.4807 42.6999 37.9981 42.6999Z" fill="#B5C2B0"/>
</svg>
