<svg width="40" height="40" viewBox="0 0 40 40" fill="none" xmlns="http://www.w3.org/2000/svg">
<path fill-rule="evenodd" clip-rule="evenodd" d="M39.1969 19.9998C39.1969 30.6037 30.6008 39.1998 19.9969 39.1998C9.393 39.1998 0.796875 30.6037 0.796875 19.9998C0.796875 9.39593 9.393 0.799805 19.9969 0.799805C30.6008 0.799805 39.1969 9.39593 39.1969 19.9998ZM24.7969 12.7998C24.7969 15.4508 22.6479 17.5998 19.9969 17.5998C17.3459 17.5998 15.1969 15.4508 15.1969 12.7998C15.1969 10.1488 17.3459 7.9998 19.9969 7.9998C22.6479 7.9998 24.7969 10.1488 24.7969 12.7998ZM19.9967 22.3998C15.1546 22.3998 10.9823 25.2678 9.08585 29.3975C11.7265 32.4606 15.6352 34.3998 19.9968 34.3998C24.3584 34.3998 28.267 32.4608 30.9078 29.3977C29.0113 25.2678 24.8389 22.3998 19.9967 22.3998Z" fill="#B5C2B0"/>
</svg>
