<svg width="44" height="44" viewBox="0 0 44 44" fill="none" xmlns="http://www.w3.org/2000/svg">
<path d="M22 0C34.1506 0 44 9.8494 44 22C44 34.1506 34.1506 44 22 44C9.8494 44 0 34.1506 0 22C0 9.8494 9.8494 0 22 0ZM22 4.4C17.3322 4.4 12.8556 6.25428 9.55492 9.55492C6.25428 12.8556 4.4 17.3322 4.4 22C4.4 26.6678 6.25428 31.1444 9.55492 34.4451C12.8556 37.7457 17.3322 39.6 22 39.6C26.6678 39.6 31.1444 37.7457 34.4451 34.4451C37.7457 31.1444 39.6 26.6678 39.6 22C39.6 17.3322 37.7457 12.8556 34.4451 9.55492C31.1444 6.25428 26.6678 4.4 22 4.4ZM22 30.8C22.5835 30.8 23.1431 31.0318 23.5556 31.4444C23.9682 31.8569 24.2 32.4165 24.2 33C24.2 33.5835 23.9682 34.1431 23.5556 34.5556C23.1431 34.9682 22.5835 35.2 22 35.2C21.4165 35.2 20.8569 34.9682 20.4444 34.5556C20.0318 34.1431 19.8 33.5835 19.8 33C19.8 32.4165 20.0318 31.8569 20.4444 31.4444C20.8569 31.0318 21.4165 30.8 22 30.8ZM22 9.9C23.853 9.90006 25.6482 10.5454 27.0771 11.7251C28.5061 12.9049 29.4796 14.5454 29.8305 16.3649C30.1814 18.1844 29.8877 20.0693 28.9999 21.6958C28.1122 23.3223 26.6857 24.5889 24.9656 25.278C24.7121 25.3742 24.483 25.5252 24.2946 25.7202C24.1978 25.8302 24.1824 25.971 24.1846 26.1162L24.2 26.4C24.1994 26.9607 23.9847 27.5001 23.5997 27.9078C23.2148 28.3155 22.6887 28.5609 22.1289 28.5938C21.5692 28.6266 21.018 28.4445 20.588 28.0846C20.158 27.7247 19.8816 27.2142 19.8154 26.6574L19.8 26.4V25.85C19.8 23.3134 21.846 21.791 23.3288 21.1948C23.9323 20.9538 24.4587 20.553 24.8516 20.0354C25.2445 19.5178 25.4889 18.9029 25.5587 18.2568C25.6285 17.6108 25.521 16.9579 25.2477 16.3683C24.9744 15.7787 24.5457 15.2747 24.0076 14.9104C23.4695 14.5462 22.8423 14.3353 22.1934 14.3006C21.5445 14.2659 20.8984 14.4085 20.3245 14.7133C19.7505 15.0181 19.2705 15.4734 18.9358 16.0305C18.6012 16.5875 18.4246 17.2252 18.425 17.875C18.425 18.4585 18.1932 19.0181 17.7806 19.4306C17.3681 19.8432 16.8085 20.075 16.225 20.075C15.6415 20.075 15.0819 19.8432 14.6694 19.4306C14.2568 19.0181 14.025 18.4585 14.025 17.875C14.025 15.7599 14.8652 13.7314 16.3608 12.2358C17.8564 10.7402 19.8849 9.9 22 9.9Z" fill="#498E4C"/>
</svg>
