<svg width="22" height="20" viewBox="0 0 22 20" fill="none" xmlns="http://www.w3.org/2000/svg">
<path d="M4.26071 6.68615C4.91422 4.36832 9.13167 0.489623 14.2319 3.7961" stroke="#57315E"/>
<path d="M13.6431 2.05914L13.3376 4.09795L14.8261 3.59431L13.6431 2.05914Z" fill="#57315E" stroke="#57315E"/>
<path d="M17.031 13.8658C16.3504 16.1758 12.0879 20.0049 7.02672 16.6391" stroke="#57315E"/>
<path d="M7.5956 18.3826L7.92493 16.3475L6.43062 16.8337L7.5956 18.3826Z" fill="#57315E" stroke="#57315E"/>
<circle cx="5.5" cy="10.0156" r="5.5" fill="#57315E"/>
<path d="M4.51006 10.4566H3.66406C3.70406 10.9286 3.85006 11.2866 4.10206 11.5306C4.35406 11.7746 4.70406 11.9126 5.15206 11.9446V12.4546H5.50606V11.9446C5.80606 11.9246 6.05206 11.8646 6.24406 11.7646C6.43606 11.6646 6.58806 11.5506 6.70006 11.4226C6.81606 11.2946 6.89606 11.1646 6.94006 11.0326C6.98406 10.8966 7.00606 10.7846 7.00606 10.6966C7.00606 10.5966 6.99806 10.4826 6.98206 10.3546C6.97006 10.2266 6.92606 10.0986 6.85006 9.97063C6.77406 9.84263 6.65606 9.72063 6.49606 9.60463C6.33606 9.48463 6.10806 9.38463 5.81206 9.30463C5.75606 9.28863 5.70206 9.27463 5.65006 9.26263C5.60206 9.25063 5.55406 9.23863 5.50606 9.22663V8.16463C5.64206 8.16463 5.75806 8.22063 5.85406 8.33263C5.95006 8.44463 6.00006 8.58063 6.00406 8.74063H6.85606C6.84406 8.53263 6.80006 8.35263 6.72406 8.20063C6.64806 8.04863 6.55006 7.92263 6.43006 7.82263C6.31006 7.71863 6.17006 7.63863 6.01006 7.58263C5.85406 7.52263 5.68606 7.48263 5.50606 7.46263V7.00063H5.15206V7.46263C4.97206 7.47463 4.79806 7.51063 4.63006 7.57063C4.46206 7.62663 4.31406 7.70863 4.18606 7.81663C4.05806 7.92063 3.95406 8.05063 3.87406 8.20663C3.79806 8.36263 3.76006 8.54263 3.76006 8.74663C3.76006 8.94663 3.79406 9.11463 3.86206 9.25063C3.93006 9.38263 4.02006 9.49463 4.13206 9.58663C4.24806 9.67463 4.37806 9.74663 4.52206 9.80263C4.66606 9.85463 4.81206 9.90063 4.96006 9.94063C5.00006 9.94863 5.03606 9.95863 5.06806 9.97063C5.10406 9.97863 5.13206 9.98663 5.15206 9.99463V11.2486C4.96806 11.2126 4.81406 11.1286 4.69006 10.9966C4.56606 10.8646 4.50606 10.6846 4.51006 10.4566ZM5.50606 11.2486V10.0966C5.74206 10.1606 5.90806 10.2326 6.00406 10.3126C6.10406 10.3886 6.15406 10.5046 6.15406 10.6606C6.15406 10.7566 6.13406 10.8406 6.09406 10.9126C6.05406 10.9806 6.00206 11.0386 5.93806 11.0866C5.87806 11.1346 5.80806 11.1726 5.72806 11.2006C5.65206 11.2246 5.57806 11.2406 5.50606 11.2486ZM5.15206 8.16463V9.14263C4.96006 9.09863 4.82206 9.04063 4.73806 8.96863C4.65406 8.89663 4.61206 8.79463 4.61206 8.66263C4.61206 8.57863 4.62606 8.50663 4.65406 8.44663C4.68606 8.38263 4.72806 8.33063 4.78006 8.29063C4.83206 8.24663 4.89006 8.21463 4.95406 8.19463C5.01806 8.17463 5.08406 8.16463 5.15206 8.16463Z" fill="white"/>
<circle cx="16.5" cy="10.0146" r="5.5" fill="#57315E"/>
<path d="M16.0201 9.58063V8.29663H16.7521C16.8601 8.29663 16.9641 8.30463 17.0641 8.32063C17.1641 8.33663 17.2521 8.36863 17.3281 8.41663C17.4041 8.46063 17.4641 8.52463 17.5081 8.60863C17.5561 8.69263 17.5801 8.80263 17.5801 8.93863C17.5801 9.07463 17.5561 9.18463 17.5081 9.26863C17.4641 9.35263 17.4041 9.41863 17.3281 9.46663C17.2521 9.51063 17.1641 9.54063 17.0641 9.55663C16.9641 9.57263 16.8601 9.58063 16.7521 9.58063H16.0201ZM15.0781 7.56463V11.8486H16.0201V10.3126H17.0101C17.2781 10.3126 17.5061 10.2746 17.6941 10.1986C17.8821 10.1186 18.0341 10.0146 18.1501 9.88663C18.2701 9.75863 18.3561 9.61263 18.4081 9.44863C18.4641 9.28063 18.4921 9.11063 18.4921 8.93863C18.4921 8.76263 18.4641 8.59263 18.4081 8.42863C18.3561 8.26463 18.2701 8.11863 18.1501 7.99063C18.0341 7.86263 17.8821 7.76063 17.6941 7.68463C17.5061 7.60463 17.2781 7.56463 17.0101 7.56463H15.0781Z" fill="white"/>
</svg>
