<svg width="30" height="27" viewBox="0 0 30 27" fill="#FFFFFF" xmlns="http://www.w3.org/2000/svg">
<path d="M14.0008 1.44172L10.5008 8.44172C9.83418 8.4417 7.70085 8.54165 4.50085 8.94165C1.30085 9.34165 1 10.4417 2.00085 11.4417L7.50085 16.4417C7.16751 18.1083 6.50085 21.8417 6.50085 23.4417C6.50085 25.0417 7.83418 25.1083 8.50085 24.9417L15.0008 21.9417L21.0008 24.9417C23.4008 26.1417 23.6675 24.1083 23.5008 22.9417L22.5008 16.4417C23.0008 15.9417 24.6008 14.4417 27.0008 12.4417C29.4008 10.4417 27.6675 9.60832 26.5008 9.44165L19.5008 8.44172C18.6675 6.44172 16.8008 2.24172 16.0008 1.44172C15.2008 0.641721 14.3342 1.10839 14.0008 1.44172Z" stroke="#ED8423" stroke-width="2"/>
</svg>
